<?xml version="1.0" encoding="UTF-8"?>
<svg width="512px" height="512px" viewBox="0 0 512 512" version="1.1" xmlns="http://www.w3.org/2000/svg" xmlns:xlink="http://www.w3.org/1999/xlink">
    <!-- Generator: Sketch 64 (93537) - https://sketch.com -->
    <title>Untitled</title>
    <desc>Created with Sketch.</desc>
    <g id="Page-1" stroke="none" stroke-width="1" fill="none" fill-rule="evenodd">
        <g id="flag" fill-rule="nonzero">
            <path d="M512,256 C512,370.707031 436.558594,467.789062 332.589844,500.347656 C324.324219,502.929688 315.894531,505.113281 307.292969,506.859375 C290.722656,510.234375 273.566406,512 256,512 C237.765625,512 219.980469,510.097656 202.824219,506.460938 C194.195312,504.644531 185.730469,502.386719 177.445312,499.722656 C135.210938,486.128906 97.769531,461.84375 68.292969,430.070312 C60.488281,421.65625 53.238281,412.722656 46.613281,403.320312 C42.726562,397.8125 39.058594,392.148438 35.621094,386.339844 C12.988281,348.160156 -2.84217094e-14,303.59375 -2.84217094e-14,256 C-2.84217094e-14,114.613281 114.613281,-2.84217094e-14 256,-2.84217094e-14 C397.386719,-2.84217094e-14 512,114.613281 512,256 Z" id="Path" fill="#267683"></path>
            <path d="M131.804688,227.265625 L129.578125,234.382812 L82.757812,383.90625 L82.402344,385.023438 L68.292969,430.070312 C60.488281,421.65625 53.238281,412.722656 46.613281,403.320312 C42.726562,397.8125 39.058594,392.148438 35.621094,386.339844 L35.890625,385.484375 L59.277344,310.292969 L75.964844,256.660156 L131.804688,227.265625 Z" id="Path" fill="#E29B0E"></path>
            <path d="M129.578125,234.382812 L82.757812,383.90625 L82.402344,385.023438 L68.292969,430.070312 C60.488281,421.65625 53.238281,412.722656 46.613281,403.320312 L53.132812,382.347656 L76.519531,307.160156 L93.203125,253.523438 L129.578125,234.382812 Z" id="Path" fill="#F4CA19"></path>
            <path d="M442.519531,277.566406 L415.722656,363.101562 C373.253906,349.796875 348.078125,355.726562 322.902344,361.652344 L322.890625,361.660156 C297.714844,367.585938 272.539062,373.515625 230.085938,360.203125 L230.070312,360.210938 C187.601562,346.90625 170.308594,327.671875 153.015625,308.441406 C142.707031,296.976562 132.402344,285.492188 116.765625,275.292969 C106.167969,268.371094 93.128906,262.035156 75.960938,256.667969 L75.953125,256.65625 L156.359375,0 L156.367188,0.015625 C198.851562,13.3125 216.128906,32.550781 233.421875,51.785156 C250.722656,71.03125 268.007812,90.25 310.476562,103.554688 C352.945312,116.859375 378.121094,110.933594 403.296875,105.003906 C428.484375,99.070312 453.660156,93.140625 496.128906,106.445312 L469.324219,192.003906 L442.519531,277.566406 Z" id="Path" fill="#E6E6E6"></path>
            <g id="Group" transform="translate(75.000000, 0.000000)" fill="#31474C">
                <path d="M394.332031,192.003906 L367.53125,277.539062 C325.054688,264.246094 299.890625,270.164062 274.707031,276.097656 L301.507812,190.5625 C326.707031,184.628906 351.855469,178.691406 394.332031,192.003906 L394.332031,192.003906 Z" id="Path"></path>
                <path d="M274.707031,276.117188 L247.910156,361.652344 L247.890625,361.671875 C222.726562,367.589844 197.542969,373.523438 155.085938,360.214844 L181.886719,274.675781 C224.34375,287.953125 249.527344,282.050781 274.691406,276.101562 L274.707031,276.101562 L274.707031,276.117188 Z" id="Path"></path>
                <path d="M328.308594,105.011719 L301.507812,190.5625 L301.492188,190.5625 C276.324219,196.5 251.160156,202.417969 208.6875,189.105469 L235.484375,103.570312 L235.484375,103.550781 C277.941406,116.863281 303.125,110.929688 328.308594,105.011719 L328.308594,105.011719 Z" id="Path"></path>
                <path d="M208.6875,189.125 L181.886719,274.675781 L181.867188,274.660156 C139.410156,261.367188 122.121094,242.136719 104.828125,222.925781 L104.828125,222.890625 L131.628906,137.355469 C148.917969,156.601562 166.230469,175.8125 208.667969,189.125 L208.6875,189.125 Z" id="Path"></path>
                <path d="M158.425781,51.785156 L158.425781,51.800781 L131.628906,137.335938 C114.335938,118.109375 97.042969,98.859375 54.570312,85.550781 L81.367188,0.015625 C123.859375,13.308594 141.136719,32.554688 158.425781,51.785156 Z" id="Path"></path>
                <path d="M104.828125,222.90625 L104.828125,222.925781 L78.027344,308.445312 C67.703125,296.980469 57.414062,285.5 41.773438,275.300781 C31.179688,268.367188 18.136719,262.042969 0.96875,256.675781 L0.953125,256.65625 L27.75,171.121094 L27.769531,171.121094 C70.242188,184.433594 87.519531,203.644531 104.828125,222.90625 L104.828125,222.90625 Z" id="Path"></path>
            </g>
        </g>
    </g>
</svg>